<svg width="200" height="36" viewBox="0 0 200 36" fill="none" xmlns="http://www.w3.org/2000/svg">
<path d="M7.23861 17.1449V20.7681L3.6193 20.7681V17.1449L7.23861 17.1449Z" fill="url(#paint0_linear_1_542)"/>
<path d="M7.23861 24.3913V28.0145H1.80965L1.80965 24.3913H7.23861Z" fill="url(#paint1_linear_1_542)"/>
<path d="M7.23861 31.6377V35.2609H0L1.58204e-07 31.6377H7.23861Z" fill="url(#paint2_linear_1_542)"/>
<path d="M21.629 11.4348C23.6268 11.4348 25.1904 12.0435 26.3196 13.2609C27.4488 14.4783 28.0134 16.1884 28.0134 18.3913V35.2609H21.1512V19.5652C21.1512 18.4058 20.963 17.6087 20.5866 17.1739C20.2102 16.7101 19.6745 16.4783 18.9796 16.4783C17.5898 16.4783 16.2579 17.4638 14.9839 19.4348V35.2609H8.12172V3L14.9839 2.30435V14.6522C15.9394 13.5797 16.9528 12.7826 18.0241 12.2609C19.0954 11.7101 20.2971 11.4348 21.629 11.4348Z" fill="#141414"/>
<path d="M53.2971 23.2609C53.2971 24.2174 53.2536 25.0435 53.1668 25.7391H38.8778C39.1094 27.6812 39.6595 29.0435 40.5282 29.8261C41.3968 30.6087 42.5984 31 44.133 31C45.0595 31 45.9571 30.8406 46.8258 30.5217C47.6944 30.1739 48.6354 29.6522 49.6488 28.9565L52.4719 32.7826C49.7791 34.9275 46.7823 36 43.4815 36C39.7464 36 36.8799 34.8985 34.8821 32.6957C32.8842 30.4928 31.8853 27.5362 31.8853 23.8261C31.8853 21.4783 32.3051 19.3768 33.1448 17.5217C33.9845 15.6377 35.215 14.1594 36.8365 13.087C38.4579 11.9855 40.3979 11.4348 42.6563 11.4348C45.9861 11.4348 48.592 12.4783 50.474 14.5652C52.3561 16.6522 53.2971 19.5507 53.2971 23.2609ZM46.5652 21.3043C46.5073 17.7681 45.2622 16 42.83 16C41.6429 16 40.7164 16.4348 40.0504 17.3043C39.4134 18.1739 39.0225 19.6087 38.8778 21.6087H46.5652V21.3043Z" fill="#141414"/>
<path d="M63.2758 36C61.278 36 59.7144 35.4348 58.5852 34.3043C57.4849 33.1449 56.9348 31.5072 56.9348 29.3913V3L63.797 2.26087V29.1304C63.797 30.087 64.1879 30.5652 64.9697 30.5652C65.375 30.5652 65.7514 30.4928 66.0989 30.3478L67.4453 35.2174C66.2002 35.7391 64.8104 36 63.2758 36Z" fill="#141414"/>
<path d="M79.8229 11.4348C81.4154 11.4348 82.8487 11.6667 84.1227 12.1304C85.3967 12.5942 86.5983 13.3043 87.7275 14.2609L84.7741 18.3478C83.3264 17.2464 81.8642 16.6957 80.3876 16.6957C78.853 16.6957 77.6948 17.2609 76.913 18.3913C76.1313 19.5217 75.7404 21.3478 75.7404 23.8696C75.7404 26.3043 76.1313 28.029 76.913 29.0435C77.6948 30.058 78.824 30.5652 80.3007 30.5652C81.0825 30.5652 81.7919 30.4493 82.4289 30.2174C83.0658 29.9565 83.8331 29.5507 84.7307 29L87.7275 33.2609C85.4401 35.087 82.8487 36 79.9532 36C77.6079 36 75.5811 35.5072 73.8728 34.5217C72.1645 33.5072 70.8471 32.1014 69.9205 30.3043C68.994 28.4783 68.5307 26.3478 68.5307 23.913C68.5307 21.4783 68.994 19.3188 69.9205 17.4348C70.8471 15.5507 72.1645 14.087 73.8728 13.0435C75.5811 11.971 77.5645 11.4348 79.8229 11.4348Z" fill="#141414"/>
<path d="M97.4786 12.1739V35.2609H90.6164V12.1739H97.4786ZM94.0041 0C95.1912 0 96.1612 0.376812 96.914 1.13044C97.6957 1.85507 98.0866 2.78261 98.0866 3.91304C98.0866 5.04348 97.6957 5.98551 96.914 6.73913C96.1612 7.46377 95.1912 7.82609 94.0041 7.82609C92.8169 7.82609 91.847 7.46377 91.0941 6.73913C90.3413 5.98551 89.9649 5.04348 89.9649 3.91304C89.9649 2.78261 90.3413 1.85507 91.0941 1.13044C91.847 0.376812 92.8169 0 94.0041 0Z" fill="#141414"/>
<path d="M112.863 11.4348C116.396 11.4348 119.161 12.5217 121.159 14.6957C123.157 16.8406 124.155 19.8551 124.155 23.7391C124.155 26.2029 123.692 28.3623 122.766 30.2174C121.868 32.0435 120.565 33.4638 118.857 34.4783C117.177 35.4928 115.18 36 112.863 36C109.36 36 106.595 34.9275 104.568 32.7826C102.57 30.6087 101.571 27.5797 101.571 23.6957C101.571 21.2319 102.02 19.087 102.917 17.2609C103.844 15.4058 105.147 13.971 106.826 12.9565C108.535 11.942 110.547 11.4348 112.863 11.4348ZM112.863 16.4783C111.473 16.4783 110.431 17.0725 109.736 18.2609C109.041 19.4203 108.694 21.2319 108.694 23.6957C108.694 26.2174 109.027 28.058 109.693 29.2174C110.388 30.3768 111.444 30.9565 112.863 30.9565C114.253 30.9565 115.295 30.3768 115.99 29.2174C116.685 28.029 117.033 26.2029 117.033 23.7391C117.033 21.2174 116.685 19.3768 115.99 18.2174C115.324 17.058 114.282 16.4783 112.863 16.4783Z" fill="#141414"/>
<path d="M136.75 5.13044C141.47 5.13044 145.248 6.2029 148.086 8.34783C150.952 10.4638 152.385 14.3623 152.385 20.0435C152.385 25.6377 150.996 29.5797 148.216 31.8696C145.436 34.1304 141.831 35.2609 137.401 35.2609H128.368V5.13044H136.75ZM135.49 10.3043V30.087H137.836C140.181 30.087 141.962 29.3623 143.178 27.913C144.394 26.4348 145.002 23.8116 145.002 20.0435C145.002 17.4638 144.698 15.4638 144.09 14.0435C143.482 12.6232 142.657 11.6522 141.614 11.1304C140.572 10.5797 139.283 10.3043 137.749 10.3043H135.49Z" fill="url(#paint3_linear_1_542)"/>
<path d="M176.636 23.2609C176.636 24.2174 176.593 25.0435 176.506 25.7391H162.217C162.448 27.6812 162.999 29.0435 163.867 29.8261C164.736 30.6087 165.937 31 167.472 31C168.399 31 169.296 30.8406 170.165 30.5217C171.033 30.1739 171.974 29.6522 172.988 28.9565L175.811 32.7826C173.118 34.9275 170.121 36 166.821 36C163.085 36 160.219 34.8985 158.221 32.6957C156.223 30.4928 155.224 27.5362 155.224 23.8261C155.224 21.4783 155.644 19.3768 156.484 17.5217C157.324 15.6377 158.554 14.1594 160.176 13.087C161.797 11.9855 163.737 11.4348 165.995 11.4348C169.325 11.4348 171.931 12.4783 173.813 14.5652C175.695 16.6522 176.636 19.5507 176.636 23.2609ZM169.904 21.3043C169.846 17.7681 168.601 16 166.169 16C164.982 16 164.055 16.4348 163.389 17.3043C162.752 18.1739 162.362 19.6087 162.217 21.6087H169.904V21.3043Z" fill="url(#paint4_linear_1_542)"/>
<path d="M200 12.1739L192.747 35.2609H184.625L177.198 12.1739H184.669L188.751 30.0435L193.008 12.1739H200Z" fill="url(#paint5_linear_1_542)"/>
<defs>
<linearGradient id="paint0_linear_1_542" x1="100" y1="0" x2="100" y2="36" gradientUnits="userSpaceOnUse">
<stop stop-color="#D921AB"/>
<stop offset="1" stop-color="#3E3E99"/>
</linearGradient>
<linearGradient id="paint1_linear_1_542" x1="100" y1="0" x2="100" y2="36" gradientUnits="userSpaceOnUse">
<stop stop-color="#D921AB"/>
<stop offset="1" stop-color="#3E3E99"/>
</linearGradient>
<linearGradient id="paint2_linear_1_542" x1="100" y1="0" x2="100" y2="36" gradientUnits="userSpaceOnUse">
<stop stop-color="#D921AB"/>
<stop offset="1" stop-color="#3E3E99"/>
</linearGradient>
<linearGradient id="paint3_linear_1_542" x1="100" y1="0" x2="100" y2="36" gradientUnits="userSpaceOnUse">
<stop stop-color="#D921AB"/>
<stop offset="1" stop-color="#3E3E99"/>
</linearGradient>
<linearGradient id="paint4_linear_1_542" x1="100" y1="0" x2="100" y2="36" gradientUnits="userSpaceOnUse">
<stop stop-color="#D921AB"/>
<stop offset="1" stop-color="#3E3E99"/>
</linearGradient>
<linearGradient id="paint5_linear_1_542" x1="100" y1="0" x2="100" y2="36" gradientUnits="userSpaceOnUse">
<stop stop-color="#D921AB"/>
<stop offset="1" stop-color="#3E3E99"/>
</linearGradient>
</defs>
</svg>
